# xmcd
#
# Track frame offsets: 
#        150
#        20993
#        41299
#        55813
#        64244
#        81613
#        105341
#        154079
#        157011
#        165442
#        180736
#        220404
#        236321
#        254361
#        259560
#        274930
#        292144
#        305759
#
# Disc length: 4772 seconds
#
# Revision: 0
# Processed by: cddbd v1.5.2PL0 Copyright (c) Steve Scherf et al.
# Submitted via: ExactAudioCopy v0.95a5
#
DISCID=0612a212
DTITLE=Philharmonisches Orchester Kiel - Ulrich Windfuhr - Schreker: F
DTITLE=lammen op.10
DYEAR=2001
DGENRE=Opera
TTITLE0=Einleitung
TTITLE1=1. Szene 'O welcher Glanz umfloss'
TTITLE2=2.  Szene 'Auch heute töne in Euch fort'
TTITLE3=3. Szene 'Täglich mit Grauen und Schmerz'
TTITLE4=4. Szene 'Weißt du auch, was Menschenwürde'
TTITLE5=5. Szene 'Mein Haupt, das bot ich dem Winde'
TTITLE6=6. Szene 'Und wie die Blume, die der Nacht entsprang'
TTITLE7=7. Szene 'Ein Bote, Fürstin, einer der Unsern'
TTITLE8=8. Szene 'Herrin, so entbiet ich Euch'
TTITLE9=9. Szene 'Dieser frohen Botschaft Heil!'
TTITLE10=10. Szene 'So wird die nächste Stunde schon'
TTITLE11=11. Szene 'Zum Himmel fleht mein Schmerzensgebet'
TTITLE12=12. Szene 'Dies trennte uns in Ewigkeit'
TTITLE13=13. Szene 'Windet grünende Guirlanden'
TTITLE14=14. Szene 'Zieret das Schloss'
TTITLE15=15. Szene 'Mit uns war der Herr'
TTITLE16=16. Szene 'Burg meiner Väter'
TTITLE17=17. Szene 'Wir streuen die Rosen dir'
EXTD=recorded Kiel, 2001, DDD\nreleased as cpo 999 824-2
EXTT0=
EXTT1=
EXTT2=
EXTT3=
EXTT4=
EXTT5=
EXTT6=
EXTT7=
EXTT8=
EXTT9=
EXTT10=
EXTT11=
EXTT12=
EXTT13=
EXTT14=
EXTT15=
EXTT16=
EXTT17=
PLAYORDER=
